<svg width="19" height="19" viewBox="0 0 19 19" version="1.1" xmlns="http://www.w3.org/2000/svg" xmlns:xlink="http://www.w3.org/1999/xlink">
<title>Logo</title>
<desc>Created using Figma</desc>
<g id="Canvas" transform="translate(-93 58)">
<g id="Logo">
<use xlink:href="#path0_stroke" transform="translate(94.77 -55)" fill="#FFFFFF"/>
</g>
</g>
<defs>
<path id="path0_stroke" d="M 1.78328e-05 0L 0.660973 -1.06096L -1.24998 -2.25144L -1.24998 0L 1.78328e-05 0ZM 15.3823 0L 16.6323 0L 16.6323 -2.24459L 14.7241 -1.06267L 15.3823 0ZM 10.2251 3.19427L 10.8833 4.25694L 10.8833 4.25694L 10.2251 3.19427ZM 4.10195 2.55541L 3.441 3.61637L 3.441 3.61638L 4.10195 2.55541ZM 4.10195 7.00153L 3.4406 5.94081L 3.4406 5.94081L 4.10195 7.00153ZM 3.48932 7.3835L 4.15066 8.44422L 4.15067 8.44422L 3.48932 7.3835ZM -1.24998 9.55906L -1.24998 15.157L 1.25002 15.157L 1.25002 9.55906L -1.24998 9.55906ZM 14.1323 0L 14.1323 9.55906L 16.6323 9.55906L 16.6323 0L 14.1323 0ZM 14.1323 9.55906L 14.1323 15.157L 16.6323 15.157L 16.6323 9.55906L 14.1323 9.55906ZM 8.32712 5.84022L 10.8833 4.25694L 9.56692 2.1316L 7.01071 3.71488L 8.32712 5.84022ZM 10.8833 4.25694L 16.0405 1.06267L 14.7241 -1.06267L 9.56692 2.1316L 10.8833 4.25694ZM -0.660937 1.06096L 3.441 3.61637L 4.76291 1.49445L 0.660973 -1.06096L -0.660937 1.06096ZM 3.441 3.61638L 7.00796 5.83851L 8.32987 3.71659L 4.76291 1.49445L 3.441 3.61638ZM 7.00756 3.71683L 3.4406 5.94081L 4.7633 8.06224L 8.33026 5.83827L 7.00756 3.71683ZM 3.4406 5.94081L 2.82796 6.32279L 4.15067 8.44422L 4.7633 8.06224L 3.4406 5.94081ZM 2.82797 6.32279L -0.661331 8.49834L 0.661367 10.6198L 4.15066 8.44422L 2.82797 6.32279ZM -1.24998 0L -1.24998 5.44908L 1.25002 5.44908L 1.25002 0L -1.24998 0ZM -1.24998 5.44908L -1.24998 9.55906L 1.25002 9.55906L 1.25002 5.44908L -1.24998 5.44908ZM -1.24998 0L -1.24998 4.09773L 1.25002 4.09773L 1.25002 0L -1.24998 0ZM -1.24998 4.09773L -1.24998 5.44908L 1.25002 5.44908L 1.25002 4.09773L -1.24998 4.09773ZM -1.24997 4.09346C -1.24999 4.098 -1.25 4.10362 -1.25 4.10817L 1.25 4.10817C 1.25 4.10576 1.25 4.10441 1.25001 4.102L -1.24997 4.09346Z"/>
</defs>
</svg>
